<svg width="28" height="36" viewBox="0 0 28 36" fill="none" xmlns="http://www.w3.org/2000/svg">
    <path d="M14.0156 8C12.7795 8 11.5711 8.36656 10.5433 9.05331C9.5155 9.74007 8.71443 10.7162 8.24138 11.8582C7.76833 13.0003 7.64456 14.2569 7.88572 15.4693C8.12688 16.6817 8.72213 17.7953 9.59621 18.6694C10.4703 19.5435 11.5839 20.1387 12.7963 20.3799C14.0087 20.6211 15.2654 20.4973 16.4074 20.0242C17.5494 19.5512 18.5256 18.7501 19.2123 17.7223C19.8991 16.6945 20.2656 15.4861 20.2656 14.25C20.2615 12.5937 19.6017 11.0063 18.4305 9.83514C17.2593 8.66393 15.672 8.00412 14.0156 8ZM14.0156 18C13.2739 18 12.5489 17.7801 11.9322 17.368C11.3156 16.956 10.8349 16.3703 10.5511 15.6851C10.2672 14.9998 10.193 14.2458 10.3377 13.5184C10.4824 12.791 10.8395 12.1228 11.364 11.5983C11.8884 11.0739 12.5566 10.7167 13.284 10.5721C14.0115 10.4274 14.7655 10.5016 15.4507 10.7854C16.1359 11.0693 16.7216 11.5499 17.1336 12.1666C17.5457 12.7833 17.7656 13.5083 17.7656 14.25C17.7615 15.2433 17.3651 16.1947 16.6627 16.8971C15.9604 17.5995 15.0089 17.9959 14.0156 18ZM14.0156 0.5C10.3702 0.504136 6.8752 1.95412 4.29747 4.53185C1.71975 7.10958 0.269761 10.6045 0.265625 14.25C0.265625 19.1562 2.53125 24.3594 6.82812 29.2812C8.75962 31.5107 10.9287 33.5226 13.2969 35.2812C13.5098 35.423 13.7598 35.4986 14.0156 35.4986C14.2714 35.4986 14.5215 35.423 14.7344 35.2812C17.1094 33.5252 19.284 31.5131 21.2188 29.2812C25.5 24.3594 27.7656 19.1562 27.7656 14.25C27.7615 10.6045 26.3115 7.10958 23.7338 4.53185C21.156 1.95412 17.6611 0.504136 14.0156 0.5ZM14.0156 32.6875C11.4375 30.6562 2.76562 23.1875 2.76562 14.25C2.76562 11.2663 3.95089 8.40483 6.06067 6.29505C8.17046 4.18526 11.0319 3 14.0156 3C16.9993 3 19.8608 4.18526 21.9706 6.29505C24.0804 8.40483 25.2656 11.2663 25.2656 14.25C25.2656 23.1875 16.5938 30.6562 14.0156 32.6875Z" fill="#18397A"/>
</svg>
